<svg width="216" height="110" viewBox="0 0 216 110" fill="none" xmlns="http://www.w3.org/2000/svg">
<path d="M12.8633 13.3438V56H4.33789V13.3438H12.8633ZM50.0117 13.3438V56H41.7207L28.332 29.3105V56H20.1875V13.3438H28.3613L41.8672 40.3262V13.3438H50.0117ZM65.5098 13.3438V56H56.9258V13.3438H65.5098ZM78.8691 31.4785V38.5684H63.3418V31.4785H78.8691ZM80.5098 13.3438V20.4629H63.3418V13.3438H80.5098ZM94.4258 13.3438V56H85.9004V13.3438H94.4258ZM131.574 13.3438V56H123.283L109.895 29.3105V56H101.75V13.3438H109.924L123.43 40.3262V13.3438H131.574ZM147.395 13.3438V56H138.869V13.3438H147.395ZM170.832 13.3438V56H162.307V13.3438H170.832ZM181.438 13.3438V20.4629H151.906V13.3438H181.438ZM210.881 48.9102V56H192.336V48.9102H210.881ZM195.002 13.3438V56H186.418V13.3438H195.002ZM208.391 30.6289V37.5137H192.336V30.6289H208.391ZM210.822 13.3438V20.4629H192.336V13.3438H210.822Z" fill="#03030C"/>
<path d="M159.395 87.5977H153.574L153.555 83.457H158.516C159.297 83.457 159.935 83.3268 160.43 83.0664C160.938 82.793 161.309 82.3958 161.543 81.875C161.79 81.3411 161.914 80.6966 161.914 79.9414C161.914 79.069 161.803 78.3724 161.582 77.8516C161.361 77.3177 161.003 76.9271 160.508 76.6797C160.013 76.4323 159.368 76.3086 158.574 76.3086H155.527V100H149.805V71.5625H158.574C159.993 71.5625 161.263 71.7188 162.383 72.0312C163.503 72.3438 164.453 72.819 165.234 73.457C166.016 74.0951 166.608 74.9023 167.012 75.8789C167.428 76.8555 167.637 78.0078 167.637 79.3359C167.637 80.5078 167.402 81.5885 166.934 82.5781C166.465 83.5677 165.729 84.375 164.727 85C163.737 85.625 162.441 85.9766 160.84 86.0547L159.395 87.5977ZM159.199 100H151.953L154.238 95.2734H159.199C159.954 95.2734 160.566 95.1107 161.035 94.7852C161.504 94.4596 161.842 94.0234 162.051 93.4766C162.259 92.9167 162.363 92.2786 162.363 91.5625C162.363 90.7552 162.266 90.0521 162.07 89.4531C161.888 88.8542 161.582 88.3984 161.152 88.0859C160.723 87.7604 160.143 87.5977 159.414 87.5977H154.492L154.531 83.457H160.508L161.855 85.0977C163.379 85.0456 164.596 85.3385 165.508 85.9766C166.419 86.6016 167.07 87.4219 167.461 88.4375C167.865 89.4401 168.066 90.5078 168.066 91.6406C168.066 93.4635 167.721 95 167.031 96.25C166.354 97.487 165.358 98.4245 164.043 99.0625C162.728 99.6875 161.113 100 159.199 100ZM185.039 71.5625H190.742V91.0938C190.742 93.2812 190.339 95.0651 189.531 96.4453C188.737 97.8125 187.637 98.8151 186.23 99.4531C184.824 100.078 183.216 100.391 181.406 100.391C179.583 100.391 177.962 100.078 176.543 99.4531C175.124 98.8151 174.017 97.8125 173.223 96.4453C172.441 95.0651 172.051 93.2812 172.051 91.0938V71.5625H177.754V91.0938C177.754 92.3307 177.891 93.2812 178.164 93.9453C178.451 94.6094 178.861 95.0651 179.395 95.3125C179.941 95.5469 180.612 95.6641 181.406 95.6641C182.214 95.6641 182.878 95.5469 183.398 95.3125C183.932 95.0651 184.336 94.6094 184.609 93.9453C184.896 93.2812 185.039 92.3307 185.039 91.0938V71.5625ZM199.336 71.5625L203.672 84.375L207.969 71.5625H214.199L206.543 89.668V100H200.781V89.668L193.125 71.5625H199.336Z" fill="white"/>
</svg>
